<svg
   xmlns="http://www.w3.org/2000/svg"
   width="250"
   height="250"
   viewBox="0 0 250 250"
>
   <g transform="translate(0,-230)" >
      <path
         style="display:inline;fill:#00a400;stroke-width:1.09325993"
         d="M 119.3413,400.51849 C 103.51419,375.74712 95.424704,366.29238 74.03647,349.57996 l -7.28247,-5.69035 0.57462,-2.93912 20.822563,-7.70767 c 9.49148,5.97891 17.421247,15.1681 24.548467,22.61051 3.57394,3.32291 18.76416,23.31268 18.76416,23.31268 33.86018,-57.75771 41.21114,-68.5562 78.06353,-113.12062 11.38263,-0.24305 -12.22719,-0.44469 28.78386,-0.14373 l -18.26556,20.33811 c -37.31393,41.46486 -57.92844,76.48838 -81.46624,121.16939 -3.7958,7.20554 -7.62917,15.32095 -7.62917,15.32095 0,0 -7.16349,-15.25398 -11.60893,-22.21162 z"
      />
      <path
         style="fill:none;fill-opacity:1;stroke:#00a400;stroke-width:22.47543526;stroke-miterlimit:4;stroke-dasharray:none;stroke-opacity:1"
         d="m 233.42675,327.17571 a 111.6357,110.74284 0 0 1 4.04932,29.55601 v 0 A 111.6357,110.74284 0 0 1 125.84038,467.47457 111.6357,110.74284 0 0 1 14.204676,356.73172 111.6357,110.74284 0 0 1 125.84038,245.98887 111.6357,110.74284 0 0 1 172.98675,256.3494"
      />
   </g>
</svg>
